<?xml version="1.0" encoding="UTF-8" standalone="no"?>
<!DOCTYPE svg PUBLIC "-//W3C//DTD SVG 1.1//EN"
 "http://www.w3.org/Graphics/SVG/1.1/DTD/svg11.dtd">
<!-- Generated by graphviz version 2.40.1 (20161225.0304)
 -->
<!-- Title: G Pages: 1 -->
<svg width="274pt" height="566pt"
 viewBox="0.00 0.00 274.00 566.00" xmlns="http://www.w3.org/2000/svg" xmlns:xlink="http://www.w3.org/1999/xlink">
<g id="graph0" class="graph" transform="scale(1 1) rotate(0) translate(4 562)">
<title>G</title>
<polygon fill="#ffffff" stroke="transparent" points="-4,4 -4,-562 270,-562 270,4 -4,4"/>
<!-- A0 -->
<g id="node1" class="node">
<title>A0</title>
<polygon fill="none" stroke="#000000" points="18,-400 18,-432 95,-432 95,-400 18,-400"/>
<text text-anchor="start" x="27.7455" y="-413" font-family="Helvetica,sans-Serif" font-size="10.00" fill="#000000">+I:ICustomer</text>
<polygon fill="none" stroke="#000000" points="18,-368 18,-400 95,-400 95,-368 18,-368"/>
<text text-anchor="start" x="40.6685" y="-381" font-family="Helvetica,sans-Serif" font-size="10.00" fill="#000000">Greet()</text>
</g>
<!-- A1 -->
<g id="node2" class="node">
<title>A1</title>
<polygon fill="none" stroke="#000000" points="0,-148 0,-180 112,-180 112,-148 0,-148"/>
<text text-anchor="start" x="31.414" y="-161" font-family="Helvetica,sans-Serif" font-size="10.00" fill="#000000">+Customer</text>
<polygon fill="none" stroke="#000000" points="0,-44 0,-148 112,-148 112,-44 0,-44"/>
<text text-anchor="start" x="25.576" y="-129" font-family="Helvetica,sans-Serif" font-size="10.00" fill="#000000">+name: string</text>
<text text-anchor="start" x="12.1135" y="-105" font-family="Helvetica,sans-Serif" font-size="10.00" fill="#000000">&#45;creditCardNumber:</text>
<text text-anchor="start" x="43.7775" y="-93" font-family="Helvetica,sans-Serif" font-size="10.00" fill="#000000">string</text>
<text text-anchor="start" x="9.749" y="-69" font-family="Helvetica,sans-Serif" font-size="10.00" fill="#000000">+CreditCardNumber:</text>
<text text-anchor="start" x="43.7775" y="-57" font-family="Helvetica,sans-Serif" font-size="10.00" fill="#000000">string</text>
<polygon fill="none" stroke="#000000" points="0,-12 0,-44 112,-44 112,-12 0,-12"/>
<text text-anchor="start" x="27.801" y="-25" font-family="Helvetica,sans-Serif" font-size="10.00" fill="#000000">+greet():void</text>
</g>
<!-- A0&#45;&gt;A1 -->
<g id="edge2" class="edge">
<title>A0&#45;&gt;A1</title>
<path fill="none" stroke="#000000" d="M56,-357.6074C56,-311.8948 56,-237.9328 56,-180.295"/>
<polygon fill="none" stroke="#000000" points="52.5001,-357.7544 56,-367.7545 59.5001,-357.7545 52.5001,-357.7544"/>
</g>
<!-- A2 -->
<g id="node3" class="node">
<title>A2</title>
<polygon fill="none" stroke="#000000" points="142,-526 142,-558 255,-558 255,-526 142,-526"/>
<text text-anchor="start" x="171.415" y="-539" font-family="Helvetica,sans-Serif" font-size="10.00" fill="#000000">+A:HotDrink</text>
<polygon fill="none" stroke="#000000" points="142,-434 142,-526 255,-526 255,-434 142,-434"/>
<text text-anchor="start" x="170.016" y="-507" font-family="Helvetica,sans-Serif" font-size="10.00" fill="#000000">+instant:bool</text>
<text text-anchor="start" x="175.8595" y="-495" font-family="Helvetica,sans-Serif" font-size="10.00" fill="#000000">+milk:bool</text>
<text text-anchor="start" x="173.4945" y="-483" font-family="Helvetica,sans-Serif" font-size="10.00" fill="#000000">&#45;sugar:byte</text>
<text text-anchor="start" x="169.186" y="-471" font-family="Helvetica,sans-Serif" font-size="10.00" fill="#000000">+brand:string</text>
<text text-anchor="start" x="173.0795" y="-459" font-family="Helvetica,sans-Serif" font-size="10.00" fill="#000000">+size:string</text>
<text text-anchor="start" x="151.9675" y="-447" font-family="Helvetica,sans-Serif" font-size="10.00" fill="#000000">+customer:Customer</text>
<polygon fill="none" stroke="#000000" points="142,-402 142,-434 255,-434 255,-402 142,-402"/>
<text text-anchor="start" x="172.81" y="-415" font-family="Helvetica,sans-Serif" font-size="10.00" fill="#000000">+HotDrink()</text>
<polygon fill="none" stroke="#000000" points="142,-370 142,-402 255,-402 255,-370 142,-370"/>
<text text-anchor="start" x="172.81" y="-383" font-family="Helvetica,sans-Serif" font-size="10.00" fill="#000000">+HotDrink()</text>
<polygon fill="none" stroke="#000000" points="142,-338 142,-370 255,-370 255,-338 142,-338"/>
<text text-anchor="start" x="168.7765" y="-351" font-family="Helvetica,sans-Serif" font-size="10.00" fill="#000000">(brand:string)</text>
<polygon fill="none" stroke="#000000" points="142,-306 142,-338 255,-338 255,-306 142,-306"/>
<text text-anchor="start" x="166.131" y="-319" font-family="Helvetica,sans-Serif" font-size="10.00" fill="#000000">+AddSugar():v</text>
<polygon fill="none" stroke="#000000" points="142,-274 142,-306 255,-306 255,-274 142,-274"/>
<text text-anchor="start" x="167.661" y="-287" font-family="Helvetica,sans-Serif" font-size="10.00" fill="#000000">(amount:byte)</text>
<polygon fill="none" stroke="#000000" points="142,-242 142,-274 255,-274 255,-242 142,-242"/>
<text text-anchor="start" x="173.635" y="-255" font-family="Helvetica,sans-Serif" font-size="10.00" fill="#000000">+Steam():a</text>
</g>
<!-- A3 -->
<g id="node4" class="node">
<title>A3</title>
<polygon fill="none" stroke="#000000" points="130,-160 130,-192 266,-192 266,-160 130,-160"/>
<text text-anchor="start" x="165.906" y="-173" font-family="Helvetica,sans-Serif" font-size="10.00" fill="#000000">+CupOfCoffee</text>
<polygon fill="none" stroke="#000000" points="130,-128 130,-160 266,-160 266,-128 130,-128"/>
<text text-anchor="start" x="159.237" y="-141" font-family="Helvetica,sans-Serif" font-size="10.00" fill="#000000">+beanType:string</text>
<polygon fill="none" stroke="#000000" points="130,-96 130,-128 266,-128 266,-96 130,-96"/>
<text text-anchor="start" x="162.577" y="-109" font-family="Helvetica,sans-Serif" font-size="10.00" fill="#000000">+CupOfCoffee()</text>
<polygon fill="none" stroke="#000000" points="130,-64 130,-96 266,-96 266,-64 130,-64"/>
<text text-anchor="start" x="162.577" y="-77" font-family="Helvetica,sans-Serif" font-size="10.00" fill="#000000">+CupOfCoffee()</text>
<polygon fill="none" stroke="#000000" points="130,-32 130,-64 266,-64 266,-32 130,-32"/>
<text text-anchor="start" x="139.937" y="-45" font-family="Helvetica,sans-Serif" font-size="10.00" fill="#000000">(brand:string):base(brand)</text>
<polygon fill="none" stroke="#000000" points="130,0 130,-32 266,-32 266,0 130,0"/>
<text text-anchor="start" x="177.2985" y="-13" font-family="Helvetica,sans-Serif" font-size="10.00" fill="#000000">+steam:o</text>
</g>
<!-- A2&#45;&gt;A3 -->
<g id="edge1" class="edge">
<title>A2&#45;&gt;A3</title>
<path fill="none" stroke="#000000" d="M198,-231.5008C198,-218.1105 198,-204.893 198,-192.2707"/>
<polygon fill="#000000" stroke="#000000" points="198,-241.7672 193.5001,-231.7671 198,-236.7672 198.0001,-231.7672 198.0001,-231.7672 198.0001,-231.7672 198,-236.7672 202.5001,-231.7672 198,-241.7672 198,-241.7672"/>
</g>
</g>
</svg>
